<?xml version="1.0" encoding="UTF-8" standalone="no"?>
<!DOCTYPE svg PUBLIC "-//W3C//DTD SVG 1.1//EN" "http://www.w3.org/Graphics/SVG/1.1/DTD/svg11.dtd">
<svg width="100%" height="100%" viewBox="0 0 829 195" version="1.1" xmlns="http://www.w3.org/2000/svg" xmlns:xlink="http://www.w3.org/1999/xlink" xml:space="preserve" xmlns:serif="http://www.serif.com/" style="fill-rule:evenodd;clip-rule:evenodd;stroke-linejoin:round;stroke-miterlimit:2;">
    <g transform="matrix(1,0,0,1,-143.752001,-1906.131644)">
        <g transform="matrix(1,0,0,1,-64,-16)">
            <g transform="matrix(1.026181,0,0,1.026181,-1165.20528,910.441778)">
                <text x="1633px" y="1146.786px" style="font-family:'BigNoodleTitling-Oblique', 'BigNoodleTitling';font-style:italic;font-size:183.98px;fill:rgb(48,85,134);">FYXO</text>
                <g transform="matrix(183.979641,0,0,183.979641,2143.543503,1146.786198)">
                </g>
                <text x="1883.396px" y="1146.786px" style="font-family:'BigNoodleTitling-Oblique', 'BigNoodleTitling';font-style:italic;font-size:183.98px;fill:rgb(66,192,183);">CHAT</text>
            </g>
            <g>
                <g transform="matrix(1,0,0,1,-1573.247999,1639.131644)">
                    <path d="M1785.357,393.453C1784.766,393.31 1784.338,392.799 1784.3,392.192C1784.263,391.585 1784.624,391.025 1785.193,390.81C1814.994,379.529 1995.226,311.305 2052.526,289.615C2054.237,288.967 2056.168,289.611 2057.148,291.155C2058.128,292.7 2057.888,294.721 2056.573,295.994C2030.818,320.918 1977,373 1977,373L1992.984,373C1996.171,373 1999.227,374.266 2001.481,376.519C2003.734,378.773 2005,381.829 2005,385.016L2005,427.984C2005,434.62 1999.62,440 1992.984,440L1985,440L1985,458.499C1985,459.476 1984.478,460.379 1983.631,460.867C1982.784,461.355 1981.741,461.353 1980.896,460.863C1973.117,456.35 1957,447 1957,447L1905,433C1905,433 1876.711,459.521 1863.567,471.843C1862.896,472.473 1861.877,472.549 1861.119,472.026C1860.361,471.504 1860.07,470.524 1860.42,469.673C1866.828,454.072 1880,422 1880,422C1880,422 1995.318,337.168 2038.195,305.627C2038.89,305.116 2039.077,304.158 2038.627,303.422C2038.176,302.687 2037.237,302.419 2036.466,302.806C1988.145,327.077 1855.317,393.791 1835.489,403.75C1833.882,404.557 1832.041,404.767 1830.293,404.344C1821.821,402.291 1795.762,395.975 1785.357,393.453ZM1971.783,427L1985.738,427C1987.133,427 1988.472,426.446 1989.459,425.459C1990.446,424.472 1991,423.133 1991,421.738L1991,388.762C1991,387.367 1990.446,386.028 1989.459,385.041C1988.472,384.054 1987.133,383.5 1985.738,383.5L1969.883,383.5C1968.665,383.5 1967.486,383.922 1966.544,384.695L1926.368,417.67C1924.65,419.08 1924.003,421.418 1924.752,423.511C1925.5,425.603 1927.484,427 1929.706,427L1957.722,427C1957.722,427 1965.831,433.107 1969.375,435.776C1969.7,436.021 1970.134,436.069 1970.505,435.902C1970.876,435.735 1971.127,435.378 1971.159,434.972C1971.388,432.049 1971.783,427 1971.783,427Z" style="fill:rgb(47,84,134);"/>
                </g>
                <g transform="matrix(1,0,0,1,-1527.247999,1414.131644)">
                    <path d="M1797,635.25C1797,635.25 1800.994,673.024 1802.465,686.935C1802.524,687.5 1802.963,687.951 1803.526,688.025C1804.089,688.1 1804.63,687.779 1804.835,687.249C1809.6,674.911 1822,642.805 1822,642.805C1822,642.805 1942.77,561.827 1978.093,538.142C1978.332,537.982 1978.403,537.662 1978.254,537.416C1978.105,537.169 1977.789,537.084 1977.536,537.221C1938.067,558.652 1797,635.25 1797,635.25Z" style="fill:rgb(66,185,192);"/>
                </g>
                <g transform="matrix(0.427511,-0.038095,0.04996,0.56066,-444.409665,1827.718571)">
                    <path d="M1847.014,534.204C1846.424,534.41 1845.725,534.256 1845.371,533.841C1845.017,533.426 1845.115,532.876 1845.601,532.548C1855.315,525.997 1873.01,514.063 1879.515,509.676C1880.944,508.712 1883.082,508.689 1884.546,509.622C1889.953,513.067 1902.487,521.053 1907.382,524.172C1908.524,524.899 1910.203,524.85 1911.269,524.058C1915.865,520.644 1927.92,511.689 1936.297,505.465C1936.814,505.081 1937.627,505.053 1938.187,505.4C1938.747,505.747 1938.878,506.358 1938.492,506.823C1931.488,515.241 1920.62,528.305 1915.135,534.897C1914.255,535.955 1912.836,536.685 1911.22,536.91C1909.605,537.135 1907.939,536.836 1906.625,536.085C1898.13,531.226 1882,522 1882,522C1882,522 1859.455,529.864 1847.014,534.204Z" style="fill:rgb(47,84,134);"/>
                </g>
            </g>
        </g>
    </g>
</svg>
